Input #0, mov,mp4,m4a,3gp,3g2,mj2, from '/home/hbattu/projects/huberman-gpt/huberman-audio/mp3/tmpxb5ttjuo.mp4':
  Metadata:
    major_brand     : dash
    minor_version   : 0
    compatible_brands: iso6mp41
    creation_time   : 2021-02-23T06:06:38.000000Z
  Duration: 01:30:34.58, start: 0.000000, bitrate: 129 kb/s
    Stream #0:0(und): Audio: aac (LC) (mp4a / 0x6134706D), 44100 Hz, stereo, fltp, 0 kb/s (default)
    Metadata:
      creation_time   : 2021-02-23T06:06:38.000000Z
      handler_name    : ISO Media file produced by Google Inc.
Stream mapping:
  Stream #0:0 -> #0:0 (aac (native) -> mp3 (libmp3lame))
Press [q] to stop, [?] for help
[graph_0_in_0_0 @ 0x55d927d07c00] tb:1/44100 samplefmt:fltp samplerate:44100 chlayout:0x3
Output #0, mp3, to '../huberman-audio/mp3/uuP-1ioh4LY.mp3':
  Metadata:
    major_brand     : dash
    minor_version   : 0
    compatible_brands: iso6mp41
    TSSE            : Lavf58.29.100
    Stream #0:0(und): Audio: mp3 (libmp3lame), 44100 Hz, stereo, fltp, delay 1105 (default)
    Metadata:
      creation_time   : 2021-02-23T06:06:38.000000Z
      handler_name    : ISO Media file produced by Google Inc.
      encoder         : Lavc58.54.100 libmp3lame
No more output streams to write to, finishing.
size=   84916kB time=01:30:34.59 bitrate= 128.0kbits/s speed=86.6x    
[AVIOContext @ 0x55d927bfc900] Statistics: 0 seeks, 126 writeouts
video:0kB audio:84916kB subtitle:0kB other streams:0kB global headers:0kB muxing overhead: 0.000398%
Input file #0 (/home/hbattu/projects/huberman-gpt/huberman-audio/mp3/tmpxb5ttjuo.mp4):
  Input stream #0:0 (audio): 234048 packets read (86953343 bytes); 234048 frames decoded (239665152 samples); 
  Total: 234048 packets (86953343 bytes) demuxed
Output file #0 (../huberman-audio/mp3/uuP-1ioh4LY.mp3):
  Output stream #0:0 (audio): 208043 frames encoded (239665152 samples); 208044 packets muxed (86953900 bytes); 
  Total: 208044 packets (86953900 bytes) muxed
[AVIOContext @ 0x55d927c20300] Statistics: 2 seeks, 333 writeouts
[AVIOContext @ 0x55d927c05880] Statistics: 87953419 bytes read, 0 seeks
